{
    "asset" : {
        "generator" : "Khronos glTF Blender I/O v1.3.48",
        "version" : "2.0"
    },
    "scene" : 0,
    "scenes" : [
        {
            "name" : "Scene",
            "nodes" : [
                0,
                1,
                2
            ]
        }
    ],
    "nodes" : [
        {
            "name" : "Light",
            "rotation" : [
                0.16907575726509094,
                0.7558803558349609,
                -0.27217137813568115,
                0.570947527885437
            ],
            "translation" : [
                4.076245307922363,
                5.903861999511719,
                -1.0054539442062378
            ]
        },
        {
            "name" : "Camera",
            "rotation" : [
                0.483536034822464,
                0.33687159419059753,
                -0.20870360732078552,
                0.7804827094078064
            ],
            "translation" : [
                7.358891487121582,
                4.958309173583984,
                6.925790786743164
            ]
        },
        {
            "mesh" : 0,
            "name" : "Base Ring Plain"
        }
    ],
    "materials" : [
        {
            "doubleSided" : true,
            "emissiveFactor" : [
                0,
                0,
                0
            ],
            "name" : "Material.001",
            "pbrMetallicRoughness" : {
                "baseColorTexture" : {
                    "index" : 0,
                    "texCoord" : 0
                },
                "metallicRoughnessTexture" : {
                    "index" : 1,
                    "texCoord" : 0
                },
                "roughnessFactor" : 0.15000000596046448
            }
        }
    ],
    "meshes" : [
        {
            "name" : "Base Ring Plain",
            "primitives" : [
                {
                    "attributes" : {
                        "POSITION" : 0,
                        "NORMAL" : 1,
                        "TEXCOORD_0" : 2
                    },
                    "indices" : 3,
                    "material" : 0
                }
            ]
        }
    ],
    "textures" : [
        {
            "source" : 0
        },
        {
            "source" : 1
        }
    ],
    "images" : [
        {
            "bufferView" : 4,
            "mimeType" : "image/png",
            "name" : "gold-scuffed_basecolor-boosted"
        },
        {
            "bufferView" : 5,
            "mimeType" : "image/png",
            "name" : "gold-scuffed_metallic"
        }
    ],
    "accessors" : [
        {
            "bufferView" : 0,
            "componentType" : 5126,
            "count" : 33012,
            "max" : [
                12.493163108825684,
                12.493163108825684,
                5
            ],
            "min" : [
                -12.493163108825684,
                -12.493163108825684,
                -5
            ],
            "type" : "VEC3"
        },
        {
            "bufferView" : 1,
            "componentType" : 5126,
            "count" : 33012,
            "type" : "VEC3"
        },
        {
            "bufferView" : 2,
            "componentType" : 5126,
            "count" : 33012,
            "type" : "VEC2"
        },
        {
            "bufferView" : 3,
            "componentType" : 5123,
            "count" : 33012,
            "type" : "SCALAR"
        }
    ],
    "bufferViews" : [
        {
            "buffer" : 0,
            "byteLength" : 396144,
            "byteOffset" : 0
        },
        {
            "buffer" : 0,
            "byteLength" : 396144,
            "byteOffset" : 396144
        },
        {
            "buffer" : 0,
            "byteLength" : 264096,
            "byteOffset" : 792288
        },
        {
            "buffer" : 0,
            "byteLength" : 66024,
            "byteOffset" : 1056384
        },
        {
            "buffer" : 0,
            "byteLength" : 19628,
            "byteOffset" : 1122408
        },
        {
            "buffer" : 0,
            "byteLength" : 59418,
            "byteOffset" : 1142036
        }
    ],
    "buffers" : [
        {
            "byteLength" : 1201456,
            "uri" : "data:application/octet-stream;base64,"
        }
    ]
}
